<mxfile host="app.diagrams.net" modified="2023-05-22T13:03:03.311Z" agent="Mozilla/5.0 (Windows NT 10.0; Win64; x64) AppleWebKit/537.36 (KHTML, like Gecko) Chrome/113.0.0.0 Safari/537.36" etag="b4uf7J__lQLJf_XukxBs" version="21.3.2" type="github">
  <diagram name="第 1 页" id="wC3-S5toERZooMezxOxx">
    <mxGraphModel dx="1160" dy="-609" grid="1" gridSize="10" guides="1" tooltips="1" connect="1" arrows="1" fold="1" page="1" pageScale="1" pageWidth="827" pageHeight="1169" math="0" shadow="0">
      <root>
        <mxCell id="0" />
        <mxCell id="1" parent="0" />
        <mxCell id="Ko_SNz_UJ27xwpOvHY-i-93" value="A" style="ellipse;whiteSpace=wrap;html=1;aspect=fixed;" vertex="1" parent="1">
          <mxGeometry x="160" y="1382" width="60" height="60" as="geometry" />
        </mxCell>
        <mxCell id="Ko_SNz_UJ27xwpOvHY-i-94" value="B" style="ellipse;whiteSpace=wrap;html=1;aspect=fixed;" vertex="1" parent="1">
          <mxGeometry x="70" y="1492" width="60" height="60" as="geometry" />
        </mxCell>
        <mxCell id="Ko_SNz_UJ27xwpOvHY-i-95" value="1" style="edgeStyle=orthogonalEdgeStyle;rounded=0;orthogonalLoop=1;jettySize=auto;html=1;" edge="1" parent="1" source="Ko_SNz_UJ27xwpOvHY-i-96" target="Ko_SNz_UJ27xwpOvHY-i-101">
          <mxGeometry relative="1" as="geometry" />
        </mxCell>
        <mxCell id="Ko_SNz_UJ27xwpOvHY-i-96" value="F" style="ellipse;whiteSpace=wrap;html=1;aspect=fixed;" vertex="1" parent="1">
          <mxGeometry x="160" y="1582" width="60" height="60" as="geometry" />
        </mxCell>
        <mxCell id="Ko_SNz_UJ27xwpOvHY-i-97" value="D" style="ellipse;whiteSpace=wrap;html=1;aspect=fixed;" vertex="1" parent="1">
          <mxGeometry x="250" y="1492" width="60" height="60" as="geometry" />
        </mxCell>
        <mxCell id="Ko_SNz_UJ27xwpOvHY-i-98" value="1" style="edgeStyle=orthogonalEdgeStyle;rounded=0;orthogonalLoop=1;jettySize=auto;html=1;entryX=0.5;entryY=1;entryDx=0;entryDy=0;" edge="1" parent="1" source="Ko_SNz_UJ27xwpOvHY-i-101" target="Ko_SNz_UJ27xwpOvHY-i-93">
          <mxGeometry relative="1" as="geometry" />
        </mxCell>
        <mxCell id="Ko_SNz_UJ27xwpOvHY-i-99" value="1" style="edgeStyle=orthogonalEdgeStyle;rounded=0;orthogonalLoop=1;jettySize=auto;html=1;" edge="1" parent="1" source="Ko_SNz_UJ27xwpOvHY-i-101" target="Ko_SNz_UJ27xwpOvHY-i-94">
          <mxGeometry relative="1" as="geometry" />
        </mxCell>
        <mxCell id="Ko_SNz_UJ27xwpOvHY-i-100" value="1" style="edgeStyle=orthogonalEdgeStyle;rounded=0;orthogonalLoop=1;jettySize=auto;html=1;" edge="1" parent="1" source="Ko_SNz_UJ27xwpOvHY-i-101" target="Ko_SNz_UJ27xwpOvHY-i-97">
          <mxGeometry relative="1" as="geometry" />
        </mxCell>
        <mxCell id="Ko_SNz_UJ27xwpOvHY-i-101" value="C" style="ellipse;whiteSpace=wrap;html=1;aspect=fixed;" vertex="1" parent="1">
          <mxGeometry x="160" y="1492" width="60" height="60" as="geometry" />
        </mxCell>
        <mxCell id="Ko_SNz_UJ27xwpOvHY-i-102" value="1" style="edgeStyle=orthogonalEdgeStyle;rounded=0;orthogonalLoop=1;jettySize=auto;html=1;" edge="1" parent="1" source="Ko_SNz_UJ27xwpOvHY-i-103" target="Ko_SNz_UJ27xwpOvHY-i-94">
          <mxGeometry relative="1" as="geometry" />
        </mxCell>
        <mxCell id="Ko_SNz_UJ27xwpOvHY-i-103" value="T5" style="ellipse;whiteSpace=wrap;html=1;aspect=fixed;" vertex="1" parent="1">
          <mxGeometry x="70" y="1582" width="60" height="60" as="geometry" />
        </mxCell>
        <mxCell id="Ko_SNz_UJ27xwpOvHY-i-104" value="T3" style="ellipse;whiteSpace=wrap;html=1;aspect=fixed;" vertex="1" parent="1">
          <mxGeometry x="70" y="1382" width="60" height="60" as="geometry" />
        </mxCell>
        <mxCell id="Ko_SNz_UJ27xwpOvHY-i-105" value="1" style="edgeStyle=orthogonalEdgeStyle;rounded=0;orthogonalLoop=1;jettySize=auto;html=1;" edge="1" parent="1" source="Ko_SNz_UJ27xwpOvHY-i-106" target="Ko_SNz_UJ27xwpOvHY-i-93">
          <mxGeometry relative="1" as="geometry" />
        </mxCell>
        <mxCell id="Ko_SNz_UJ27xwpOvHY-i-106" value="T1" style="ellipse;whiteSpace=wrap;html=1;aspect=fixed;" vertex="1" parent="1">
          <mxGeometry x="250" y="1382" width="60" height="60" as="geometry" />
        </mxCell>
        <mxCell id="Ko_SNz_UJ27xwpOvHY-i-107" value="1" style="edgeStyle=orthogonalEdgeStyle;rounded=0;orthogonalLoop=1;jettySize=auto;html=1;" edge="1" parent="1" source="Ko_SNz_UJ27xwpOvHY-i-108" target="Ko_SNz_UJ27xwpOvHY-i-97">
          <mxGeometry relative="1" as="geometry" />
        </mxCell>
        <mxCell id="Ko_SNz_UJ27xwpOvHY-i-108" value="T2" style="ellipse;whiteSpace=wrap;html=1;aspect=fixed;" vertex="1" parent="1">
          <mxGeometry x="250" y="1582" width="60" height="60" as="geometry" />
        </mxCell>
        <mxCell id="Ko_SNz_UJ27xwpOvHY-i-109" value="1" style="edgeStyle=orthogonalEdgeStyle;rounded=0;orthogonalLoop=1;jettySize=auto;html=1;" edge="1" parent="1" source="Ko_SNz_UJ27xwpOvHY-i-110" target="Ko_SNz_UJ27xwpOvHY-i-96">
          <mxGeometry relative="1" as="geometry" />
        </mxCell>
        <mxCell id="Ko_SNz_UJ27xwpOvHY-i-110" value="T4" style="ellipse;whiteSpace=wrap;html=1;aspect=fixed;" vertex="1" parent="1">
          <mxGeometry x="160" y="1682" width="60" height="60" as="geometry" />
        </mxCell>
        <mxCell id="Ko_SNz_UJ27xwpOvHY-i-111" value="" style="endArrow=classic;html=1;rounded=0;exitX=1;exitY=1;exitDx=0;exitDy=0;entryX=0;entryY=0;entryDx=0;entryDy=0;" edge="1" parent="1" source="Ko_SNz_UJ27xwpOvHY-i-104" target="Ko_SNz_UJ27xwpOvHY-i-101">
          <mxGeometry width="50" height="50" relative="1" as="geometry">
            <mxPoint x="130" y="1482" as="sourcePoint" />
            <mxPoint x="180" y="1432" as="targetPoint" />
          </mxGeometry>
        </mxCell>
        <mxCell id="Ko_SNz_UJ27xwpOvHY-i-112" value="1" style="edgeLabel;html=1;align=center;verticalAlign=middle;resizable=0;points=[];" vertex="1" connectable="0" parent="Ko_SNz_UJ27xwpOvHY-i-111">
          <mxGeometry x="-0.3156" y="1" relative="1" as="geometry">
            <mxPoint as="offset" />
          </mxGeometry>
        </mxCell>
        <mxCell id="Ko_SNz_UJ27xwpOvHY-i-113" value="A" style="ellipse;whiteSpace=wrap;html=1;aspect=fixed;" vertex="1" parent="1">
          <mxGeometry x="532" y="1390" width="60" height="60" as="geometry" />
        </mxCell>
        <mxCell id="Ko_SNz_UJ27xwpOvHY-i-114" value="B" style="ellipse;whiteSpace=wrap;html=1;aspect=fixed;" vertex="1" parent="1">
          <mxGeometry x="442" y="1500" width="60" height="60" as="geometry" />
        </mxCell>
        <mxCell id="Ko_SNz_UJ27xwpOvHY-i-115" value="1" style="edgeStyle=orthogonalEdgeStyle;rounded=0;orthogonalLoop=1;jettySize=auto;html=1;" edge="1" parent="1" source="Ko_SNz_UJ27xwpOvHY-i-116" target="Ko_SNz_UJ27xwpOvHY-i-121">
          <mxGeometry relative="1" as="geometry" />
        </mxCell>
        <mxCell id="Ko_SNz_UJ27xwpOvHY-i-116" value="F" style="ellipse;whiteSpace=wrap;html=1;aspect=fixed;" vertex="1" parent="1">
          <mxGeometry x="532" y="1590" width="60" height="60" as="geometry" />
        </mxCell>
        <mxCell id="Ko_SNz_UJ27xwpOvHY-i-117" value="D" style="ellipse;whiteSpace=wrap;html=1;aspect=fixed;" vertex="1" parent="1">
          <mxGeometry x="622" y="1500" width="60" height="60" as="geometry" />
        </mxCell>
        <mxCell id="Ko_SNz_UJ27xwpOvHY-i-118" value="1" style="edgeStyle=orthogonalEdgeStyle;rounded=0;orthogonalLoop=1;jettySize=auto;html=1;entryX=0.5;entryY=1;entryDx=0;entryDy=0;" edge="1" parent="1" source="Ko_SNz_UJ27xwpOvHY-i-121" target="Ko_SNz_UJ27xwpOvHY-i-113">
          <mxGeometry relative="1" as="geometry" />
        </mxCell>
        <mxCell id="Ko_SNz_UJ27xwpOvHY-i-119" value="" style="edgeStyle=orthogonalEdgeStyle;rounded=0;orthogonalLoop=1;jettySize=auto;html=1;" edge="1" parent="1" source="Ko_SNz_UJ27xwpOvHY-i-121" target="Ko_SNz_UJ27xwpOvHY-i-114">
          <mxGeometry relative="1" as="geometry" />
        </mxCell>
        <mxCell id="Ko_SNz_UJ27xwpOvHY-i-120" value="" style="edgeStyle=orthogonalEdgeStyle;rounded=0;orthogonalLoop=1;jettySize=auto;html=1;" edge="1" parent="1" source="Ko_SNz_UJ27xwpOvHY-i-121" target="Ko_SNz_UJ27xwpOvHY-i-117">
          <mxGeometry relative="1" as="geometry" />
        </mxCell>
        <mxCell id="Ko_SNz_UJ27xwpOvHY-i-121" value="C" style="ellipse;whiteSpace=wrap;html=1;aspect=fixed;" vertex="1" parent="1">
          <mxGeometry x="532" y="1500" width="60" height="60" as="geometry" />
        </mxCell>
        <mxCell id="Ko_SNz_UJ27xwpOvHY-i-122" value="1" style="edgeStyle=orthogonalEdgeStyle;rounded=0;orthogonalLoop=1;jettySize=auto;html=1;" edge="1" parent="1" source="Ko_SNz_UJ27xwpOvHY-i-123" target="Ko_SNz_UJ27xwpOvHY-i-114">
          <mxGeometry relative="1" as="geometry" />
        </mxCell>
        <mxCell id="Ko_SNz_UJ27xwpOvHY-i-123" value="T5" style="ellipse;whiteSpace=wrap;html=1;aspect=fixed;" vertex="1" parent="1">
          <mxGeometry x="442" y="1590" width="60" height="60" as="geometry" />
        </mxCell>
        <mxCell id="Ko_SNz_UJ27xwpOvHY-i-124" value="T3" style="ellipse;whiteSpace=wrap;html=1;aspect=fixed;" vertex="1" parent="1">
          <mxGeometry x="442" y="1390" width="60" height="60" as="geometry" />
        </mxCell>
        <mxCell id="Ko_SNz_UJ27xwpOvHY-i-125" value="1" style="edgeStyle=orthogonalEdgeStyle;rounded=0;orthogonalLoop=1;jettySize=auto;html=1;" edge="1" parent="1" source="Ko_SNz_UJ27xwpOvHY-i-126" target="Ko_SNz_UJ27xwpOvHY-i-113">
          <mxGeometry relative="1" as="geometry" />
        </mxCell>
        <mxCell id="Ko_SNz_UJ27xwpOvHY-i-126" value="T1" style="ellipse;whiteSpace=wrap;html=1;aspect=fixed;" vertex="1" parent="1">
          <mxGeometry x="622" y="1390" width="60" height="60" as="geometry" />
        </mxCell>
        <mxCell id="Ko_SNz_UJ27xwpOvHY-i-127" value="1" style="edgeStyle=orthogonalEdgeStyle;rounded=0;orthogonalLoop=1;jettySize=auto;html=1;" edge="1" parent="1" source="Ko_SNz_UJ27xwpOvHY-i-128" target="Ko_SNz_UJ27xwpOvHY-i-117">
          <mxGeometry relative="1" as="geometry" />
        </mxCell>
        <mxCell id="Ko_SNz_UJ27xwpOvHY-i-128" value="T2" style="ellipse;whiteSpace=wrap;html=1;aspect=fixed;" vertex="1" parent="1">
          <mxGeometry x="622" y="1590" width="60" height="60" as="geometry" />
        </mxCell>
        <mxCell id="Ko_SNz_UJ27xwpOvHY-i-129" value="1" style="edgeStyle=orthogonalEdgeStyle;rounded=0;orthogonalLoop=1;jettySize=auto;html=1;" edge="1" parent="1" source="Ko_SNz_UJ27xwpOvHY-i-130" target="Ko_SNz_UJ27xwpOvHY-i-116">
          <mxGeometry relative="1" as="geometry" />
        </mxCell>
        <mxCell id="Ko_SNz_UJ27xwpOvHY-i-130" value="T4" style="ellipse;whiteSpace=wrap;html=1;aspect=fixed;" vertex="1" parent="1">
          <mxGeometry x="532" y="1690" width="60" height="60" as="geometry" />
        </mxCell>
        <mxCell id="Ko_SNz_UJ27xwpOvHY-i-131" value="1" style="endArrow=classic;html=1;rounded=0;exitX=1;exitY=1;exitDx=0;exitDy=0;entryX=0;entryY=0;entryDx=0;entryDy=0;" edge="1" parent="1" source="Ko_SNz_UJ27xwpOvHY-i-124" target="Ko_SNz_UJ27xwpOvHY-i-121">
          <mxGeometry width="50" height="50" relative="1" as="geometry">
            <mxPoint x="502" y="1490" as="sourcePoint" />
            <mxPoint x="552" y="1440" as="targetPoint" />
          </mxGeometry>
        </mxCell>
        <mxCell id="Ko_SNz_UJ27xwpOvHY-i-132" value="2" style="endArrow=classic;html=1;rounded=0;exitX=1;exitY=0.5;exitDx=0;exitDy=0;strokeColor=#FF0820;" edge="1" parent="1" source="Ko_SNz_UJ27xwpOvHY-i-124" target="Ko_SNz_UJ27xwpOvHY-i-113">
          <mxGeometry width="50" height="50" relative="1" as="geometry">
            <mxPoint x="526" y="1370" as="sourcePoint" />
            <mxPoint x="576" y="1320" as="targetPoint" />
          </mxGeometry>
        </mxCell>
        <mxCell id="Ko_SNz_UJ27xwpOvHY-i-133" value="" style="curved=1;endArrow=classic;html=1;rounded=0;strokeColor=#FF0820;exitX=1;exitY=0.5;exitDx=0;exitDy=0;entryX=1;entryY=1;entryDx=0;entryDy=0;" edge="1" parent="1" source="Ko_SNz_UJ27xwpOvHY-i-130" target="Ko_SNz_UJ27xwpOvHY-i-113">
          <mxGeometry width="50" height="50" relative="1" as="geometry">
            <mxPoint x="665" y="1777" as="sourcePoint" />
            <mxPoint x="715" y="1727" as="targetPoint" />
            <Array as="points">
              <mxPoint x="643" y="1710" />
            </Array>
          </mxGeometry>
        </mxCell>
        <mxCell id="Ko_SNz_UJ27xwpOvHY-i-134" value="3" style="edgeLabel;html=1;align=center;verticalAlign=middle;resizable=0;points=[];" vertex="1" connectable="0" parent="Ko_SNz_UJ27xwpOvHY-i-133">
          <mxGeometry x="-0.488" y="22" relative="1" as="geometry">
            <mxPoint as="offset" />
          </mxGeometry>
        </mxCell>
        <mxCell id="Ko_SNz_UJ27xwpOvHY-i-135" value="1" style="edgeLabel;html=1;align=center;verticalAlign=middle;resizable=0;points=[];" vertex="1" connectable="0" parent="Ko_SNz_UJ27xwpOvHY-i-133">
          <mxGeometry x="0.4264" y="-6" relative="1" as="geometry">
            <mxPoint as="offset" />
          </mxGeometry>
        </mxCell>
        <mxCell id="Ko_SNz_UJ27xwpOvHY-i-136" value="1" style="edgeStyle=orthogonalEdgeStyle;rounded=0;orthogonalLoop=1;jettySize=auto;html=1;strokeColor=#000000;" edge="1" parent="1" source="Ko_SNz_UJ27xwpOvHY-i-139" target="Ko_SNz_UJ27xwpOvHY-i-152">
          <mxGeometry relative="1" as="geometry" />
        </mxCell>
        <mxCell id="Ko_SNz_UJ27xwpOvHY-i-137" value="1" style="edgeStyle=orthogonalEdgeStyle;rounded=0;orthogonalLoop=1;jettySize=auto;html=1;strokeColor=#000000;" edge="1" parent="1" source="Ko_SNz_UJ27xwpOvHY-i-139" target="Ko_SNz_UJ27xwpOvHY-i-149">
          <mxGeometry relative="1" as="geometry" />
        </mxCell>
        <mxCell id="Ko_SNz_UJ27xwpOvHY-i-138" value="2" style="edgeStyle=orthogonalEdgeStyle;rounded=0;orthogonalLoop=1;jettySize=auto;html=1;strokeColor=#FF0A2B;" edge="1" parent="1" source="Ko_SNz_UJ27xwpOvHY-i-139" target="Ko_SNz_UJ27xwpOvHY-i-151">
          <mxGeometry relative="1" as="geometry" />
        </mxCell>
        <mxCell id="Ko_SNz_UJ27xwpOvHY-i-139" value="A" style="ellipse;whiteSpace=wrap;html=1;aspect=fixed;" vertex="1" parent="1">
          <mxGeometry x="909" y="1394" width="60" height="60" as="geometry" />
        </mxCell>
        <mxCell id="Ko_SNz_UJ27xwpOvHY-i-140" value="1" style="edgeStyle=orthogonalEdgeStyle;rounded=0;orthogonalLoop=1;jettySize=auto;html=1;strokeColor=#000000;" edge="1" parent="1" source="Ko_SNz_UJ27xwpOvHY-i-142" target="Ko_SNz_UJ27xwpOvHY-i-149">
          <mxGeometry relative="1" as="geometry" />
        </mxCell>
        <mxCell id="Ko_SNz_UJ27xwpOvHY-i-141" value="1" style="edgeStyle=orthogonalEdgeStyle;rounded=0;orthogonalLoop=1;jettySize=auto;html=1;strokeColor=#000000;" edge="1" parent="1" source="Ko_SNz_UJ27xwpOvHY-i-142" target="Ko_SNz_UJ27xwpOvHY-i-150">
          <mxGeometry relative="1" as="geometry" />
        </mxCell>
        <mxCell id="Ko_SNz_UJ27xwpOvHY-i-142" value="B" style="ellipse;whiteSpace=wrap;html=1;aspect=fixed;" vertex="1" parent="1">
          <mxGeometry x="819" y="1504" width="60" height="60" as="geometry" />
        </mxCell>
        <mxCell id="Ko_SNz_UJ27xwpOvHY-i-143" value="1" style="edgeStyle=orthogonalEdgeStyle;rounded=0;orthogonalLoop=1;jettySize=auto;html=1;strokeColor=#000000;" edge="1" parent="1" source="Ko_SNz_UJ27xwpOvHY-i-144" target="Ko_SNz_UJ27xwpOvHY-i-154">
          <mxGeometry relative="1" as="geometry" />
        </mxCell>
        <mxCell id="Ko_SNz_UJ27xwpOvHY-i-144" value="F" style="ellipse;whiteSpace=wrap;html=1;aspect=fixed;" vertex="1" parent="1">
          <mxGeometry x="909" y="1594" width="60" height="60" as="geometry" />
        </mxCell>
        <mxCell id="Ko_SNz_UJ27xwpOvHY-i-145" value="1" style="edgeStyle=orthogonalEdgeStyle;rounded=0;orthogonalLoop=1;jettySize=auto;html=1;strokeColor=#000000;" edge="1" parent="1" source="Ko_SNz_UJ27xwpOvHY-i-147" target="Ko_SNz_UJ27xwpOvHY-i-149">
          <mxGeometry relative="1" as="geometry" />
        </mxCell>
        <mxCell id="Ko_SNz_UJ27xwpOvHY-i-146" value="1" style="edgeStyle=orthogonalEdgeStyle;rounded=0;orthogonalLoop=1;jettySize=auto;html=1;strokeColor=#000000;" edge="1" parent="1" source="Ko_SNz_UJ27xwpOvHY-i-147" target="Ko_SNz_UJ27xwpOvHY-i-153">
          <mxGeometry relative="1" as="geometry" />
        </mxCell>
        <mxCell id="Ko_SNz_UJ27xwpOvHY-i-147" value="D" style="ellipse;whiteSpace=wrap;html=1;aspect=fixed;" vertex="1" parent="1">
          <mxGeometry x="999" y="1504" width="60" height="60" as="geometry" />
        </mxCell>
        <mxCell id="Ko_SNz_UJ27xwpOvHY-i-148" value="1" style="edgeStyle=orthogonalEdgeStyle;rounded=0;orthogonalLoop=1;jettySize=auto;html=1;strokeColor=#000000;" edge="1" parent="1" source="Ko_SNz_UJ27xwpOvHY-i-149" target="Ko_SNz_UJ27xwpOvHY-i-144">
          <mxGeometry relative="1" as="geometry" />
        </mxCell>
        <mxCell id="Ko_SNz_UJ27xwpOvHY-i-149" value="C" style="ellipse;whiteSpace=wrap;html=1;aspect=fixed;" vertex="1" parent="1">
          <mxGeometry x="909" y="1504" width="60" height="60" as="geometry" />
        </mxCell>
        <mxCell id="Ko_SNz_UJ27xwpOvHY-i-150" value="T5" style="ellipse;whiteSpace=wrap;html=1;aspect=fixed;" vertex="1" parent="1">
          <mxGeometry x="819" y="1594" width="60" height="60" as="geometry" />
        </mxCell>
        <mxCell id="Ko_SNz_UJ27xwpOvHY-i-151" value="T3" style="ellipse;whiteSpace=wrap;html=1;aspect=fixed;fillColor=#f8cecc;strokeColor=#b85450;" vertex="1" parent="1">
          <mxGeometry x="819" y="1394" width="60" height="60" as="geometry" />
        </mxCell>
        <mxCell id="Ko_SNz_UJ27xwpOvHY-i-152" value="T1" style="ellipse;whiteSpace=wrap;html=1;aspect=fixed;fillColor=#f8cecc;strokeColor=#b85450;" vertex="1" parent="1">
          <mxGeometry x="999" y="1394" width="60" height="60" as="geometry" />
        </mxCell>
        <mxCell id="Ko_SNz_UJ27xwpOvHY-i-153" value="T2" style="ellipse;whiteSpace=wrap;html=1;aspect=fixed;" vertex="1" parent="1">
          <mxGeometry x="999" y="1594" width="60" height="60" as="geometry" />
        </mxCell>
        <mxCell id="Ko_SNz_UJ27xwpOvHY-i-154" value="T4" style="ellipse;whiteSpace=wrap;html=1;aspect=fixed;fillColor=#f8cecc;strokeColor=#b85450;" vertex="1" parent="1">
          <mxGeometry x="909" y="1694" width="60" height="60" as="geometry" />
        </mxCell>
        <mxCell id="Ko_SNz_UJ27xwpOvHY-i-155" value="" style="endArrow=classic;html=1;rounded=0;strokeColor=#000000;exitX=0;exitY=0;exitDx=0;exitDy=0;entryX=0.722;entryY=0.912;entryDx=0;entryDy=0;entryPerimeter=0;" edge="1" parent="1" source="Ko_SNz_UJ27xwpOvHY-i-149" target="Ko_SNz_UJ27xwpOvHY-i-151">
          <mxGeometry width="50" height="50" relative="1" as="geometry">
            <mxPoint x="824" y="1510" as="sourcePoint" />
            <mxPoint x="874" y="1460" as="targetPoint" />
          </mxGeometry>
        </mxCell>
        <mxCell id="Ko_SNz_UJ27xwpOvHY-i-156" value="1" style="edgeLabel;html=1;align=center;verticalAlign=middle;resizable=0;points=[];" vertex="1" connectable="0" parent="Ko_SNz_UJ27xwpOvHY-i-155">
          <mxGeometry x="-0.2075" y="1" relative="1" as="geometry">
            <mxPoint as="offset" />
          </mxGeometry>
        </mxCell>
        <mxCell id="Ko_SNz_UJ27xwpOvHY-i-157" value="" style="curved=1;endArrow=classic;html=1;rounded=0;strokeColor=#FF0A2B;exitX=1;exitY=1;exitDx=0;exitDy=0;entryX=0.972;entryY=0.294;entryDx=0;entryDy=0;entryPerimeter=0;" edge="1" parent="1" source="Ko_SNz_UJ27xwpOvHY-i-139" target="Ko_SNz_UJ27xwpOvHY-i-154">
          <mxGeometry width="50" height="50" relative="1" as="geometry">
            <mxPoint x="1093" y="1654" as="sourcePoint" />
            <mxPoint x="1005" y="1786" as="targetPoint" />
            <Array as="points">
              <mxPoint x="1025" y="1623" />
            </Array>
          </mxGeometry>
        </mxCell>
        <mxCell id="Ko_SNz_UJ27xwpOvHY-i-158" value="3" style="edgeLabel;html=1;align=center;verticalAlign=middle;resizable=0;points=[];" vertex="1" connectable="0" parent="Ko_SNz_UJ27xwpOvHY-i-157">
          <mxGeometry x="-0.012" y="-15" relative="1" as="geometry">
            <mxPoint as="offset" />
          </mxGeometry>
        </mxCell>
        <mxCell id="Ko_SNz_UJ27xwpOvHY-i-159" value="2" style="curved=1;endArrow=classic;html=1;rounded=0;strokeColor=#FF0820;exitX=0;exitY=0.5;exitDx=0;exitDy=0;entryX=0;entryY=1;entryDx=0;entryDy=0;" edge="1" parent="1" source="Ko_SNz_UJ27xwpOvHY-i-116" target="Ko_SNz_UJ27xwpOvHY-i-113">
          <mxGeometry width="50" height="50" relative="1" as="geometry">
            <mxPoint x="735" y="1726" as="sourcePoint" />
            <mxPoint x="726" y="1447" as="targetPoint" />
            <Array as="points">
              <mxPoint x="485" y="1654" />
            </Array>
          </mxGeometry>
        </mxCell>
        <mxCell id="Ko_SNz_UJ27xwpOvHY-i-160" value="3" style="edgeLabel;html=1;align=center;verticalAlign=middle;resizable=0;points=[];" vertex="1" connectable="0" parent="Ko_SNz_UJ27xwpOvHY-i-159">
          <mxGeometry x="-0.488" y="22" relative="1" as="geometry">
            <mxPoint as="offset" />
          </mxGeometry>
        </mxCell>
        <mxCell id="Ko_SNz_UJ27xwpOvHY-i-161" value="1" style="edgeLabel;html=1;align=center;verticalAlign=middle;resizable=0;points=[];" vertex="1" connectable="0" parent="Ko_SNz_UJ27xwpOvHY-i-159">
          <mxGeometry x="0.4264" y="-6" relative="1" as="geometry">
            <mxPoint as="offset" />
          </mxGeometry>
        </mxCell>
        <mxCell id="Ko_SNz_UJ27xwpOvHY-i-162" value="2" style="curved=1;endArrow=classic;html=1;rounded=0;strokeColor=#FF0820;exitX=0;exitY=1;exitDx=0;exitDy=0;entryX=0;entryY=0.5;entryDx=0;entryDy=0;" edge="1" parent="1" source="Ko_SNz_UJ27xwpOvHY-i-139" target="Ko_SNz_UJ27xwpOvHY-i-154">
          <mxGeometry width="50" height="50" relative="1" as="geometry">
            <mxPoint x="532" y="1630" as="sourcePoint" />
            <mxPoint x="541" y="1451" as="targetPoint" />
            <Array as="points">
              <mxPoint x="874" y="1681" />
            </Array>
          </mxGeometry>
        </mxCell>
        <mxCell id="Ko_SNz_UJ27xwpOvHY-i-163" value="3" style="edgeLabel;html=1;align=center;verticalAlign=middle;resizable=0;points=[];" vertex="1" connectable="0" parent="Ko_SNz_UJ27xwpOvHY-i-162">
          <mxGeometry x="-0.488" y="22" relative="1" as="geometry">
            <mxPoint as="offset" />
          </mxGeometry>
        </mxCell>
        <mxCell id="Ko_SNz_UJ27xwpOvHY-i-164" value="1" style="edgeLabel;html=1;align=center;verticalAlign=middle;resizable=0;points=[];" vertex="1" connectable="0" parent="Ko_SNz_UJ27xwpOvHY-i-162">
          <mxGeometry x="0.4264" y="-6" relative="1" as="geometry">
            <mxPoint as="offset" />
          </mxGeometry>
        </mxCell>
        <mxCell id="Ko_SNz_UJ27xwpOvHY-i-165" value="&lt;font style=&quot;font-size: 16px;&quot;&gt;b）计算A顶点的传递闭包&lt;/font&gt;" style="text;html=1;strokeColor=none;fillColor=none;align=center;verticalAlign=middle;whiteSpace=wrap;rounded=0;" vertex="1" parent="1">
          <mxGeometry x="450" y="1765" width="205" height="30" as="geometry" />
        </mxCell>
        <mxCell id="Ko_SNz_UJ27xwpOvHY-i-166" value="&lt;font style=&quot;font-size: 16px;&quot;&gt;a）类型依赖图&lt;/font&gt;" style="text;html=1;strokeColor=none;fillColor=none;align=center;verticalAlign=middle;whiteSpace=wrap;rounded=0;" vertex="1" parent="1">
          <mxGeometry x="121.5" y="1765" width="137" height="30" as="geometry" />
        </mxCell>
        <mxCell id="Ko_SNz_UJ27xwpOvHY-i-167" value="&lt;font style=&quot;font-size: 16px;&quot;&gt;c）用例缩减和用例排序&lt;/font&gt;" style="text;html=1;strokeColor=none;fillColor=none;align=center;verticalAlign=middle;whiteSpace=wrap;rounded=0;" vertex="1" parent="1">
          <mxGeometry x="834.5" y="1765" width="209" height="30" as="geometry" />
        </mxCell>
      </root>
    </mxGraphModel>
  </diagram>
</mxfile>
